<svg width="396" height="101.7762228540245" viewBox="0 0 349.99999999999994 89.95373232047618" class="css-1j8o68f"><defs id="SvgjsDefs1417"></defs><g id="SvgjsG1418" featurekey="ptiKCW-0" transform="matrix(4.5010291245485,0,0,4.5010291245485,-2.4305547507088288,-0.06686948681524996)" fill="#0D9488"><path d="M4.86 19.64 q0 0.16 -0.1 0.26 t-0.26 0.1 l-2.88 0 q-0.46 0 -0.77 -0.31 t-0.31 -0.77 l0 -5.76 q0 -0.46 0.31 -0.77 t0.77 -0.31 l1.44 0 q0.16 0 0.26 -0.1 t0.1 -0.26 l0 -3.24 q0 -0.16 -0.1 -0.26 t-0.26 -0.1 l-2.16 0 q0.46 0 0.77 0.31 t0.31 0.77 q0 0.16 -0.1 0.26 t-0.26 0.1 l-0.72 0 q-0.16 0 -0.26 -0.1 t-0.1 -0.26 l0 -1.44 q0 -0.46 0.31 -0.77 t0.77 -0.31 l2.16 0 q0.46 0 0.77 0.31 t0.31 0.77 l0 4.68 q0 0.46 -0.31 0.77 t-0.77 0.31 l-2.88 0 q0.46 0 0.77 0.31 t0.31 0.77 l0 3.6 q0 0.16 0.1 0.26 t0.26 0.1 l2.16 0 q0.16 0 0.26 0.1 t0.1 0.26 l0 0.72 z M10.260000000000002 19.64 q0 0.16 -0.1 0.26 t-0.26 0.1 l-0.72 0 q-0.16 0 -0.26 -0.1 t-0.1 -0.26 l0 -11.16 q0 -0.16 -0.1 -0.26 t-0.26 -0.1 l-2.16 0 q0.46 0 0.77 0.31 t0.31 0.77 l0 10.44 q0 0.16 -0.1 0.26 t-0.26 0.1 l-0.72 0 q-0.16 0 -0.26 -0.1 t-0.1 -0.26 l0 -12.6 q0 -0.16 0.1 -0.26 t0.26 -0.1 l2.88 0 q0.46 0 0.77 0.31 t0.31 0.77 l0 11.88 z M14.58 6.68 q0.46 0 0.77 0.31 t0.31 0.77 l0 11.16 q0 0.46 -0.31 0.77 t-0.77 0.31 l-2.88 0 q-0.16 0 -0.26 -0.1 t-0.1 -0.26 l0 -12.6 q0 -0.16 0.1 -0.26 t0.26 -0.1 l2.88 0 z M14.22 8.48 q0 -0.16 -0.1 -0.26 t-0.26 -0.1 l-2.16 0 q0.46 0 0.77 0.31 t0.31 0.77 l0 9 q0 0.16 0.1 0.26 t0.26 0.1 l0.72 0 q0.16 0 0.26 -0.1 t0.1 -0.26 l0 -9.72 z M22.860000000000003 20 q-0.16 0 -0.26 -0.1 t-0.1 -0.26 l0 -11.16 q0 -0.16 -0.1 -0.26 t-0.26 -0.1 l-0.72 0 q-0.16 0 -0.26 -0.1 t-0.1 -0.26 l0 -0.72 q0 -0.16 0.1 -0.26 t0.26 -0.1 l3.6 0 q0.16 0 0.26 0.1 t0.1 0.26 l0 0.72 q0 0.16 -0.1 0.26 t-0.26 0.1 l-2.16 0 q0.46 0 0.77 0.31 t0.31 0.77 l0 10.44 q0 0.16 -0.1 0.26 t-0.26 0.1 l-0.72 0 z M26.82 20 q-0.16 0 -0.26 -0.1 t-0.1 -0.26 l0 -12.6 q0 -0.16 0.1 -0.26 t0.26 -0.1 l0.72 0 q0.16 0 0.26 0.1 t0.1 0.26 l0 12.6 q0 0.16 -0.1 0.26 t-0.26 0.1 l-0.72 0 z M28.98 7.039999999999999 q0 -0.16 0.1 -0.26 t0.26 -0.1 l2.16 0 q0.46 0 0.77 0.31 t0.31 0.77 q0 -0.46 0.31 -0.77 t0.77 -0.31 l1.44 0 q0.46 0 0.77 0.31 t0.31 0.77 l0 11.88 q0 0.16 -0.1 0.26 t-0.26 0.1 l-0.72 0 q-0.16 0 -0.26 -0.1 t-0.1 -0.26 l0 -11.16 q0 -0.16 -0.1 -0.26 t-0.26 -0.1 l-2.16 0 q0.46 0 0.77 0.31 t0.31 0.77 l0 10.44 q0 0.16 -0.1 0.26 t-0.26 0.1 l-0.72 0 q-0.16 0 -0.26 -0.1 t-0.1 -0.26 l0 -11.16 q0 -0.16 -0.1 -0.26 t-0.26 -0.1 l-2.16 0 q0.46 0 0.77 0.31 t0.31 0.77 l0 10.44 q0 0.16 -0.1 0.26 t-0.26 0.1 l-0.72 0 q-0.16 0 -0.26 -0.1 t-0.1 -0.26 l0 -12.6 z M38.339999999999996 20 q-0.46 0 -0.77 -0.31 t-0.31 -0.77 l0 -11.16 q0 -0.46 0.31 -0.77 t0.77 -0.31 l2.88 0 q0.16 0 0.26 0.1 t0.1 0.26 l0 0.72 q0 0.16 -0.1 0.26 t-0.26 0.1 l-3.6 0 q0.46 0 0.77 0.31 t0.31 0.77 l0 3.96 q0 0.16 0.1 0.26 t0.26 0.1 l0.72 0 q0.16 0 0.26 0.1 t0.1 0.26 l0 0.72 q0 0.16 -0.1 0.26 t-0.26 0.1 l-2.16 0 q0.46 0 0.77 0.31 t0.31 0.77 l0 2.16 q0 0.16 0.1 0.26 t0.26 0.1 l2.16 0 q0.16 0 0.26 0.1 t0.1 0.26 l0 0.72 q0 0.16 -0.1 0.26 t-0.26 0.1 l-2.88 0 z M50.22 6.68 q0.46 0 0.77 0.31 t0.31 0.77 l0 11.88 q0 0.16 -0.1 0.26 t-0.26 0.1 l-0.72 0 q-0.16 0 -0.26 -0.1 t-0.1 -0.26 l0 -4.32 q0 -0.16 -0.1 -0.26 t-0.26 -0.1 l-2.16 0 q0.46 0 0.77 0.31 t0.31 0.77 l0 3.6 q0 0.16 -0.1 0.26 t-0.26 0.1 l-0.72 0 q-0.16 0 -0.26 -0.1 t-0.1 -0.26 l0 -11.88 q0 -0.46 0.31 -0.77 t0.77 -0.31 l2.16 0 z M49.86 8.48 q0 -0.16 -0.1 -0.26 t-0.26 -0.1 l-2.16 0 q0.46 0 0.77 0.31 t0.31 0.77 l0 3.96 q0 0.16 0.1 0.26 t0.26 0.1 l0.72 0 q0.16 0 0.26 -0.1 t0.1 -0.26 l0 -4.68 z M56.699999999999996 13.16 q0 0.46 -0.31 0.77 t-0.77 0.31 q0.46 0 0.77 0.31 t0.31 0.77 l0 4.32 q0 0.16 -0.1 0.26 t-0.26 0.1 l-0.72 0 q-0.16 0 -0.26 -0.1 t-0.1 -0.26 l0 -4.32 q0 -0.16 -0.1 -0.26 t-0.26 -0.1 l-2.16 0 q0.46 0 0.77 0.31 t0.31 0.77 l0 3.6 q0 0.16 -0.1 0.26 t-0.26 0.1 l-0.72 0 q-0.16 0 -0.26 -0.1 t-0.1 -0.26 l0 -12.6 q0 -0.16 0.1 -0.26 t0.26 -0.1 l2.88 0 q0.46 0 0.77 0.31 t0.31 0.77 l0 5.4 z M55.26 8.48 q0 -0.16 -0.1 -0.26 t-0.26 -0.1 l-2.16 0 q0.46 0 0.77 0.31 t0.31 0.77 l0 3.96 q0 0.16 0.1 0.26 t0.26 0.1 l0.72 0 q0.16 0 0.26 -0.1 t0.1 -0.26 l0 -4.68 z M61.019999999999996 6.68 q0.46 0 0.77 0.31 t0.31 0.77 l0 11.16 q0 0.46 -0.31 0.77 t-0.77 0.31 l-2.16 0 q-0.46 0 -0.77 -0.31 t-0.31 -0.77 l0 -11.16 q0 -0.46 0.31 -0.77 t0.77 -0.31 l2.16 0 z M60.66 8.48 q0 -0.16 -0.1 -0.26 t-0.26 -0.1 l-2.16 0 q0.46 0 0.77 0.31 t0.31 0.77 l0 9 q0 0.16 0.1 0.26 t0.26 0.1 l0.72 0 q0.16 0 0.26 -0.1 t0.1 -0.26 l0 -9.72 z M64.25999999999999 6.68 q0.16 0 0.26 0.1 t0.1 0.26 l0 10.44 q0 0.46 -0.31 0.77 t-0.77 0.31 l2.16 0 q0.16 0 0.26 -0.1 t0.1 -0.26 l0 -11.16 q0 -0.16 0.1 -0.26 t0.26 -0.1 l0.72 0 q0.16 0 0.26 0.1 t0.1 0.26 l0 12.6 q0 0.16 -0.1 0.26 t-0.26 0.1 l-2.88 0 q-0.46 0 -0.77 -0.31 t-0.31 -0.77 l0 -11.88 q0 -0.16 0.1 -0.26 t0.26 -0.1 l0.72 0 z M72.89999999999999 19.64 q0 0.16 -0.1 0.26 t-0.26 0.1 l-0.72 0 q-0.16 0 -0.26 -0.1 t-0.1 -0.26 l0 -11.16 q0 -0.16 -0.1 -0.26 t-0.26 -0.1 l-2.16 0 q0.46 0 0.77 0.31 t0.31 0.77 l0 10.44 q0 0.16 -0.1 0.26 t-0.26 0.1 l-0.72 0 q-0.16 0 -0.26 -0.1 t-0.1 -0.26 l0 -12.6 q0 -0.16 0.1 -0.26 t0.26 -0.1 l2.88 0 q0.46 0 0.77 0.31 t0.31 0.77 l0 11.88 z M77.22 6.68 q0.46 0 0.77 0.31 t0.31 0.77 l0 11.16 q0 0.46 -0.31 0.77 t-0.77 0.31 l-2.88 0 q-0.16 0 -0.26 -0.1 t-0.1 -0.26 l0 -12.6 q0 -0.16 0.1 -0.26 t0.26 -0.1 l2.88 0 z M76.86 8.48 q0 -0.16 -0.1 -0.26 t-0.26 -0.1 l-2.16 0 q0.46 0 0.77 0.31 t0.31 0.77 l0 9 q0 0.16 0.1 0.26 t0.26 0.1 l0.72 0 q0.16 0 0.26 -0.1 t0.1 -0.26 l0 -9.72 z"></path></g></svg>